<svg width="14" height="14" viewBox="0 0 14 14" fill="none" xmlns="http://www.w3.org/2000/svg">
<path d="M10.09 12.25H3.91961C3.5998 12.2496 3.29321 12.1205 3.06707 11.8908C2.84093 11.6612 2.71372 11.3499 2.71335 11.0252V5.76683H1.96656C0.267817 5.84304 -0.679812 3.48484 0.576904 2.3293C0.758878 2.14366 0.975541 1.99679 1.21418 1.89732C1.45281 1.79786 1.70861 1.7478 1.96656 1.75007H12.0431C12.5639 1.75574 13.0616 1.96976 13.4279 2.3457C13.7943 2.72163 13.9999 3.22912 14 3.758C14.0001 4.28688 13.7948 4.79446 13.4286 5.17055C13.0623 5.54665 12.5648 5.7609 12.044 5.7668H11.2963V11.0252C11.2959 11.3499 11.1687 11.6612 10.9426 11.8908C10.7164 12.1205 10.4099 12.2496 10.09 12.25ZM3.6586 5.28694V11.0252C3.65865 11.0955 3.68616 11.1629 3.7351 11.2125C3.78404 11.2622 3.8504 11.2902 3.91961 11.2902H10.09C10.1593 11.2902 10.2256 11.2622 10.2746 11.2125C10.3235 11.1629 10.351 11.0955 10.3511 11.0252V4.23719H3.6586V5.28694ZM1.96656 2.70988C1.6968 2.71488 1.43967 2.82685 1.25015 3.02185C1.06064 3.21684 0.953781 3.47938 0.952428 3.75334C0.951074 4.02729 1.05533 4.2909 1.24291 4.48782C1.43049 4.68473 1.6865 4.79932 1.9562 4.80707H2.71335V4.2372H2.40319C2.27905 4.23533 2.16063 4.18395 2.07349 4.09416C1.98636 4.00436 1.93752 3.88337 1.93752 3.75731C1.93752 3.63126 1.98636 3.51026 2.07349 3.42047C2.16063 3.33068 2.27905 3.27929 2.40319 3.27742C3.46921 3.27573 10.5397 3.27571 11.6064 3.27742C11.7306 3.27921 11.8491 3.33055 11.9363 3.42035C12.0235 3.51016 12.0724 3.6312 12.0724 3.75731C12.0724 3.88342 12.0235 4.00447 11.9363 4.09427C11.8491 4.18407 11.7306 4.23542 11.6064 4.2372H11.2963V4.80707H12.0431C12.3164 4.80623 12.5783 4.69538 12.7713 4.49883C12.9643 4.30227 13.0727 4.03604 13.0727 3.75848C13.0727 3.48093 12.9643 3.2147 12.7713 3.01814C12.5783 2.82158 12.3164 2.71074 12.0431 2.7099L1.96656 2.70988ZM7.00483 9.96C6.94291 9.96005 6.88158 9.94771 6.82436 9.92368C6.7717 9.96783 5.54786 8.66308 5.48287 8.61338C5.39717 8.52278 5.34987 8.40168 5.35112 8.27608C5.35236 8.15047 5.40206 8.03036 5.48955 7.94154C5.57703 7.85272 5.69532 7.80227 5.81903 7.80101C5.94273 7.79976 6.062 7.84779 6.15121 7.93482L6.5322 8.32162V6.04613C6.5322 5.91886 6.582 5.7968 6.67063 5.7068C6.75927 5.61681 6.87948 5.56625 7.00483 5.56625C7.13018 5.56625 7.25039 5.61681 7.33902 5.7068C7.42766 5.7968 7.47745 5.91886 7.47745 6.04613V8.32162L7.85846 7.93475C7.94767 7.84766 8.06696 7.79957 8.19071 7.80081C8.31445 7.80205 8.43279 7.85251 8.52029 7.94137C8.6078 8.03022 8.65749 8.15038 8.6587 8.27603C8.6599 8.40168 8.61253 8.5228 8.52675 8.61337L7.33897 9.8194C7.29521 9.86411 7.24314 9.89957 7.18578 9.92371C7.12842 9.94784 7.06692 9.96018 7.00483 9.96Z" fill="#0E100F"/>
</svg>
