<svg width="19" height="20" viewBox="0 0 19 20" fill="none" xmlns="http://www.w3.org/2000/svg">
<path d="M18.1297 9.45399L10.3266 17.257C9.37072 18.213 8.0742 18.75 6.72231 18.75C5.37042 18.75 4.0739 18.213 3.11797 17.257C2.16204 16.3011 1.625 15.0046 1.625 13.6527C1.625 12.3008 2.16204 11.0043 3.11797 10.0483L10.921 2.24531C11.5583 1.60802 12.4226 1.25 13.3239 1.25C14.2252 1.25 15.0895 1.60802 15.7268 2.24531C16.3641 2.8826 16.7221 3.74695 16.7221 4.64821C16.7221 5.54947 16.3641 6.41381 15.7268 7.0511L7.91526 14.8541C7.59662 15.1728 7.16445 15.3518 6.71382 15.3518C6.26319 15.3518 5.83101 15.1728 5.51237 14.8541C5.19373 14.5355 5.01471 14.1033 5.01471 13.6527C5.01471 13.2021 5.19373 12.7699 5.51237 12.4512L12.7211 5.25105" stroke="#0E100F" stroke-width="1.75" stroke-linecap="round" stroke-linejoin="round"/>
</svg>
