<svg width="24" height="24" viewBox="0 0 24 24" fill="none" xmlns="http://www.w3.org/2000/svg">
<path d="M13.1925 4.73624L15.78 5.14874L13.9275 7.00499L14.3363 9.59999L12 8.41124L9.66375 9.59999L10.0725 7.00874L8.22 5.14874L10.8075 4.73624L12 2.39999L13.1925 4.73624ZM10.2 13.8V19.8H13.8V13.8H10.2ZM8.4 12H10.2H13.8H15.6V13.8V19.8V21.6H13.8H10.2H8.4V19.8V13.8V12ZM1.8 16.2V19.8H5.4V16.2H1.8ZM0 14.4H1.8H5.4H7.2V16.2V19.8V21.6H5.4H1.8H0V19.8V16.2V14.4ZM22.2 17.4H18.6V19.8H22.2V17.4ZM18.6 15.6H22.2H24V17.4V19.8V21.6H22.2H18.6H16.8V19.8V17.4V15.6H18.6Z" fill="white"/>
</svg>
