<svg width="16" height="16" viewBox="0 0 16 16" fill="none" xmlns="http://www.w3.org/2000/svg">
<path d="M5.15769 2H11.7339V9.88216L7.61609 14L6.7775 13.1988C6.69914 13.1241 6.63469 13.0212 6.58413 12.8901C6.53348 12.759 6.50816 12.6318 6.50816 12.5083V12.3389L7.15292 9.88216H3.35568C2.99744 9.88216 2.68196 9.74575 2.40924 9.47292C2.13641 9.2001 2 8.88462 2 8.52648V7.55188C2 7.4766 2.00993 7.39595 2.0298 7.30994C2.04966 7.22384 2.07191 7.14483 2.09654 7.07292L3.90555 2.81132C4.00685 2.58418 4.17664 2.39215 4.4149 2.23523C4.65316 2.07841 4.90076 2 5.15769 2ZM10.4317 3.35568H5.15769L3.36283 7.55188V8.52648H8.81862L8.05691 11.6293L10.4317 9.25452V3.35568ZM11.7339 9.88216V8.52648H13.4112V3.35568H11.7339V2H14.7669V9.88216H11.7339Z" fill="#0E100F" fill-opacity="0.5"/>
</svg>
