<svg width="16" height="16" viewBox="0 0 16 16" fill="none" xmlns="http://www.w3.org/2000/svg">
<g clip-path="url(#clip0_4345_6282)">
<path d="M8.21788 14C6.55361 14 5.13284 13.4212 3.95558 12.2636C2.77843 11.1061 2.18986 9.6996 2.18986 8.04405V7.9106L1.07631 9.02415L0 7.94341L3.02857 4.91041L6.05714 7.94341L4.98083 9.02415L3.86728 7.9106V8.03078C3.86728 9.22144 4.2902 10.2344 5.13604 11.0697C5.98175 11.9049 7.00903 12.3226 8.21788 12.3226C8.54624 12.3226 8.86771 12.2835 9.1823 12.2053C9.49677 12.1272 9.80442 12.01 10.1053 11.8536L11.348 13.092C10.8604 13.3917 10.3547 13.6179 9.83078 13.7707C9.30691 13.9236 8.76928 14 8.21788 14ZM13.3556 11.0852L10.3226 8.05641L11.4033 6.97567L12.5169 8.0894V7.96922C12.5169 6.77843 12.0932 5.76547 11.2459 4.93032C10.3987 4.09505 9.37069 3.67742 8.16184 3.67742C7.83349 3.67742 7.51201 3.7165 7.19742 3.79465C6.88295 3.87281 6.5753 3.98998 6.27447 4.14617L5.03613 2.90359C5.52375 2.60387 6.02876 2.37831 6.55115 2.22691C7.07355 2.07564 7.61045 2 8.16184 2C9.82611 2 11.2476 2.57874 12.4264 3.73622C13.605 4.89382 14.1943 6.3004 14.1943 7.95595V8.0894L15.3034 6.97567L16.3841 8.05641L13.3556 11.0852Z" fill="#0E100F" fill-opacity="0.5"/>
</g>
<defs>
<clipPath id="clip0_4345_6282">
<rect width="16" height="16" fill="white"/>
</clipPath>
</defs>
</svg>
