<svg width="20" height="20" viewBox="0 0 20 20" fill="none" xmlns="http://www.w3.org/2000/svg">
<path d="M8.18462 9.9343C9.19087 6.38742 10.9002 4.80617 12.4659 4.09367C13.8346 3.46867 15.2815 3.42492 16.4284 3.57492C16.5784 4.71867 16.5346 6.16555 15.9096 7.53742C15.1971 9.09992 13.6159 10.8124 10.069 11.8187C9.86899 11.4155 9.60649 11.0468 9.28149 10.7249C8.95649 10.403 8.58774 10.1374 8.18774 9.93742L8.18462 9.9343ZM3.38774 10.9905C3.42524 10.9968 3.46274 10.9999 3.50024 10.9999H6.33462C7.04087 10.9999 7.71899 11.2812 8.21899 11.7812C8.71899 12.2812 9.00024 12.9593 9.00024 13.6655V16.2499V16.2562V17.9999L14.0002 15.4999V11.753C18.4846 8.96867 18.2627 4.50617 17.7096 2.29055C15.494 1.73742 11.0315 1.51555 8.24712 5.99992H6.23462H6.22524H4.50024L2.00024 10.9874L3.38774 10.9905ZM2.01587 17.9843C2.01587 17.9843 5.65649 18.2343 7.20337 16.6874C8.27837 15.6124 8.27837 13.8718 7.20337 12.7968C6.12837 11.7218 4.38774 11.7218 3.31274 12.7968C1.76587 14.3437 2.01587 17.9843 2.01587 17.9843ZM4.01899 15.9812C4.01899 15.9812 3.93462 14.7718 4.45024 14.2562C4.80649 13.8999 5.38774 13.8999 5.74399 14.2562C6.10024 14.6124 6.10024 15.1937 5.74399 15.5499C5.22837 16.0655 4.01899 15.9812 4.01899 15.9812ZM14.7502 6.49992C14.7502 6.1684 14.6185 5.85046 14.3841 5.61604C14.1497 5.38162 13.8318 5.24992 13.5002 5.24992C13.1687 5.24992 12.8508 5.38162 12.6164 5.61604C12.3819 5.85046 12.2502 6.1684 12.2502 6.49992C12.2502 6.83144 12.3819 7.14938 12.6164 7.3838C12.8508 7.61822 13.1687 7.74992 13.5002 7.74992C13.8318 7.74992 14.1497 7.61822 14.3841 7.3838C14.6185 7.14938 14.7502 6.83144 14.7502 6.49992Z" fill="#0E100F"/>
</svg>
