<svg width="16" height="16" viewBox="0 0 16 16" fill="none" xmlns="http://www.w3.org/2000/svg">
<path d="M12.8336 12.3246H6.09915C5.70509 12.3246 5.36928 12.1858 5.09173 11.9083C4.81417 11.6308 4.6754 11.295 4.6754 10.9009V2.42375C4.6754 2.02959 4.81417 1.69378 5.09173 1.41633C5.36928 1.13878 5.70509 1 6.09915 1H10.4277L14.2574 4.82973V10.9009C14.2574 11.295 14.1186 11.6308 13.8411 11.9083C13.5635 12.1858 13.2277 12.3246 12.8336 12.3246ZM9.70452 5.55287V2.42375H6.09915V10.9009H12.8336V5.55287H9.70452ZM3.42375 15C3.02969 15 2.69388 14.8612 2.41633 14.5837C2.13878 14.3062 2 13.9704 2 13.5763V4.85961H3.42375V13.5763H10.3416V15H3.42375Z" fill="#0E100F" fill-opacity="0.5"/>
</svg>
