<svg width="20" height="20" viewBox="0 0 20 20" fill="none" xmlns="http://www.w3.org/2000/svg">
<path d="M8.99755 1.66669C4.95344 1.66669 1.66667 5.40716 1.66667 10.0048C1.66667 14.6024 4.95344 18.3334 8.99755 18.3334C9.85785 18.3095 10.875 18.2548 11.7696 18.1619C15.3995 17.6238 17.6177 14.8119 18.1961 11.5881C18.598 9.35002 18.1152 6.97859 16.9436 5.1024C15.7819 3.2405 14.0931 1.92145 11.7279 1.77621C10.826 1.73335 9.83089 1.67145 8.99755 1.66669ZM8.99755 2.69526C12.5515 2.69526 15.424 5.96192 15.424 10.0024C15.424 14.0429 12.5539 17.3024 8.99755 17.3024C5.44118 17.3024 2.57353 14.0429 2.57353 10.0048C2.57353 5.96669 5.44363 2.69526 8.99755 2.69526Z" fill="white"/>
<g clip-path="url(#clip0_3071_95863)">
<path d="M11.619 6.5282H6.98936V7.68561H11.619V6.5282Z" fill="white"/>
<path d="M12.7768 7.68488H11.6194V9.42099H12.7768V7.68488Z" fill="white"/>
<path d="M12.7768 10.5788H11.6194V12.3149H12.7768V10.5788Z" fill="white"/>
<path d="M6.99008 9.42099V7.68488H5.83267V13.4719H6.99008H11.6197V12.3145H6.99008V10.5784H11.6197V9.42099H6.99008Z" fill="white"/>
</g>
<defs>
<clipPath id="clip0_3071_95863">
<rect width="6.94444" height="6.94444" fill="white" transform="translate(5.83333 6.52777)"/>
</clipPath>
</defs>
</svg>
