<svg width="20" height="20" viewBox="0 0 20 20" fill="none" xmlns="http://www.w3.org/2000/svg">
<path d="M9.9285 0.963656L18.3277 5.80358L18.2175 14.9816L9.92563 19.0705L1.66683 14.9853V5.80298L9.9285 0.963656Z" stroke="#0E100F" stroke-width="1.66667"/>
<path d="M10.0001 15.2081C10.5759 15.2081 11.0417 14.7415 11.0417 14.1665C11.0417 13.5915 10.5759 13.1248 10.0001 13.1248C9.42592 13.1248 8.95842 13.5915 8.95842 14.1665C8.95842 14.7415 9.42592 15.2081 10.0001 15.2081Z" fill="#0E100F"/>
<path d="M10.0768 5.03896C10.9401 5.03896 11.6959 5.32146 12.2026 5.83479C12.6776 6.31646 12.9234 6.97896 12.9142 7.74896C12.9001 8.90229 12.1984 9.65896 11.6343 10.2673C10.8801 11.0798 10.8442 11.529 10.8551 12.0823H9.18425C9.17925 10.8531 9.20092 10.3115 10.3776 9.19229C10.8542 8.73896 11.2309 8.38062 11.1792 7.67479C11.1318 7.00396 10.5709 6.65312 10.0426 6.65312C9.45175 6.65312 8.76092 7.09229 8.76092 8.33062H7.08508C7.08508 6.33062 8.26008 5.03896 10.0768 5.03896Z" fill="#0E100F"/>
</svg>
