<svg width="22" height="25" viewBox="0 0 22 25" fill="none" xmlns="http://www.w3.org/2000/svg">
<path d="M17.9807 8.76218C18.5023 8.76218 18.9248 8.38428 18.9248 7.91769V7.22627C18.9248 5.9986 17.8084 5 16.4359 5H11.6362C11.1146 5 10.6921 5.3779 10.6921 5.84448C10.6921 6.31107 11.1146 6.68896 11.6362 6.68896H16.4359C16.7616 6.68896 17.0366 6.93597 17.0366 7.22627V7.91769C17.0366 8.38428 17.4591 8.76218 17.9807 8.76218Z" fill="white"/>
<path d="M2.73436 6.84946C3.19934 6.6394 3.38577 6.13166 3.15094 5.71469C2.9161 5.29983 2.34847 5.12988 1.88231 5.34207C0.738755 5.85827 0 6.9392 0 8.09602V20.3757C0 24 1 24.6762 4.80902 24.6762H20.2829C21.2294 24.6762 22 23.988 22 23.1403L21.9988 11.0314C21.9988 10.1848 21.2294 9.49551 20.2817 9.49551L3.46254 9.49657C3.04713 9.49657 2.64115 9.34667 2.3485 9.08489C2.05584 8.82311 1.88826 8.46314 1.88826 8.09578C1.88944 7.57009 2.22101 7.0817 2.73436 6.84946ZM3.46251 11.1859H20.1104V14.1523H14.866C13.4935 14.1523 12.376 14.1519 12.376 15.3807V18.7941C12.376 20.0228 13.4935 20.0225 14.866 20.0225H20.1104V22.9878H4.80902C1.88938 22.9878 1.88938 22.2448 1.88938 20.3762V10.8461C2.37324 11.0657 2.91375 11.1859 3.46251 11.1859ZM20.1104 15.8412V18.3335H14.8672C14.5356 18.3335 14.2654 18.0918 14.2654 17.7941V16.3807C14.2654 16.083 14.5356 15.8412 14.8672 15.8412H20.1104Z" fill="white"/>
<path d="M6.99942 0C6.49636 0 6.08892 0.413621 6.08892 0.924318V4.82035L5.55856 4.27499C5.20345 3.91103 4.62757 3.90757 4.27133 4.26575C3.91281 4.62391 3.9094 5.20971 4.26222 5.57251L6.34956 7.71924C6.51459 7.89139 6.7445 8 7.00057 8C7.25665 8 7.48543 7.89139 7.65159 7.71924L9.73779 5.57251C10.0906 5.20971 10.0872 4.62394 9.72868 4.26575C9.3713 3.90759 8.79316 3.91105 8.44032 4.27499L7.90995 4.82035V0.924318C7.90995 0.413621 7.50362 0 6.99942 0Z" fill="white"/>
</svg>
